PathFileType	4	(X/Y/Z)	T1_P2_NoVision_NoMovement_4_0-734.trc
DataRate	CameraRate	NumFrames	NumMarkers	Units	OrigDataRate	OrigDataStartFrame	OrigNumFrames
60	60	7	27	m	60	367	734
Frame#	Time	RHip			RKnee			RAnkle			RBigToe			RSmallToe			RHeel			LHip			LKnee			LAnkle			LBigToe			LSmallToe			LHeel			Neck			Head			Nose			RShoulder			RElbow			RWrist			RThumb			RIndex			RPinky			LShoulder			LElbow			LWrist			LThumb			LIndex			LPinky		
		X1	Y1	Z1	X2	Y2	Z2	X3	Y3	Z3	X4	Y4	Z4	X5	Y5	Z5	X6	Y6	Z6	X7	Y7	Z7	X8	Y8	Z8	X9	Y9	Z9	X10	Y10	Z10	X11	Y11	Z11	X12	Y12	Z12	X13	Y13	Z13	X14	Y14	Z14	X15	Y15	Z15	X16	Y16	Z16	X17	Y17	Z17	X18	Y18	Z18	X19	Y19	Z19	X20	Y20	Z20	X21	Y21	Z21	X22	Y22	Z22	X23	Y23	Z23	X24	Y24	Z24	X25	Y25	Z25	X26	Y26	Z26	X27	Y27	Z27
368	6.133333333333334	457.8196917260141	3647.843449796509	547.5428446296964	843.1274619386296	3656.244735022105	538.3327192547749	1236.5304189604658	3726.895351849346	611.948886360466	1325.8422535609034	3631.71962676841	561.6564026840371	1312.9222003401674	3694.416952209814	525.1982082528029	1269.8462690203462	3711.9362842104138	623.2020879513746	465.93259451634634	3526.2494689736345	738.7009565447281	860.1005733540426	3547.1031172708913	737.0841913129947	1221.4923148931498	3604.7769004820993	725.3510638789691	1311.557766976102	3513.485240509057	665.8384969310333	1270.5225298046223	3442.3571598798226	703.1409984690349	1266.18361541593	3622.369696725795	719.749902129928	-112.21217831372374	3563.456325752929	676.7658721251202	-373.0744568470566	3496.0323684956784	679.590279865166	-223.05907997480503	3396.567032474908	614.7144068145196	-49.67215347490907	3649.031639922406	548.7095982169615	192.8702147530509	3701.523948294582	467.40052682237433	338.3547116168257	3458.34922249114	484.43540681471046	429.4527347497184	3517.5733663598644	595.1654927492059	444.07090894431946	3510.1084159750108	607.5698561468669	467.8528493734537	3477.2466800255893	580.1030418150556	-13.064848807218791	3538.925672754735	848.4845421483748	222.22907791312318	3409.131082911372	790.285175726415	367.7979764715475	3414.8973666225443	603.7986648640311	416.3196496336036	3445.693278772273	502.83710466737256	430.02366490858196	3443.8571604852427	500.88021861344095	446.3085842751444	3392.827292115005	532.2091425687319
369	6.15	461.8258970812308	3642.3753462138843	544.7649488306968	843.1799778517797	3656.1738625905627	538.3478526626701	1230.1860111819326	3722.4249812536823	610.9618912379227	1318.1009542969591	3610.549234862029	556.1279735918597	1304.5914352607954	3672.1232584896	519.5852970120692	1269.774162759814	3712.0567273306715	623.3835495986601	459.83750810998083	3491.98532259874	719.5202126131595	860.218385613025	3547.0792504795318	737.0095710406794	1224.092166115944	3599.9225414012667	722.4581019444449	1311.6922735687467	3513.7347303695683	665.9029331637992	1278.0180978568108	3464.2530138675556	704.7481277416924	1259.0716081031796	3609.3006080945033	701.8275871050186	-111.73777064801457	3579.0966849324545	690.3554317351898	-373.0135039813388	3496.0885037001335	679.3293449880392	-223.63545156326168	3416.247573074712	619.9707884686044	-49.76383060677525	3649.2626094767866	548.9505145240836	190.6863123500799	3684.3414199755116	454.30546618354424	338.3701487938305	3458.2577295864467	484.33192748468366	429.3973977687477	3517.5390859933254	595.1825355590652	443.94599342410595	3509.9993446173175	607.5452300716343	464.1854970355346	3460.995222062733	567.2619703542213	-12.993132269374984	3538.858583790642	848.4351870512603	220.26974349927238	3393.6618493076417	781.4334427901804	367.7033496637663	3414.6916237466203	603.695033770808	413.25812500173356	3449.2086565659743	504.65069211432075	431.4519958422749	3448.518733332185	503.5587626323581	443.14948267171826	3373.6779159708417	526.5849615018371
370	6.166666666666667	461.97126220189944	3644.4924104927777	540.0822691638854	843.33519351541	3656.4891371162385	538.4195014255821	1224.490474640475	3720.7502581629524	609.5235561599866	1314.6322300632112	3609.5095872486045	560.1591183734644	1304.6992091682816	3672.551685416549	519.6962080919196	1272.3199420712808	3707.0864159735083	620.8271099543658	463.2349984273987	3506.4995233933546	732.6221033129492	860.3639084280118	3547.0974241062054	737.1031797543858	1230.7373474688407	3603.691554768512	723.3122277417314	1310.2212080444795	3497.2782842437323	661.1144203158632	1270.491787037339	3442.31671114817	703.1418248984206	1259.1599048421117	3609.196513887741	701.7805329386423	-115.88168888859319	3577.65491852266	689.881041571488	-377.3652598334125	3499.7817557419316	681.1961670189685	-223.7670060118874	3416.330408872276	620.0014106566094	-49.77941590935275	3649.34051248949	548.9904057386278	190.72752146229058	3684.5385194905357	454.3944633168414	342.86540856207296	3461.9786090603534	485.62236304410027	429.29956325889617	3516.3075903666063	594.383730339718	444.0040897722418	3509.184144023397	607.0035947253991	464.11159559145807	3461.306575535982	567.4156651100429	-12.970179228188776	3538.8871099798353	848.486352783031	220.3736051946397	3395.429698049735	776.8480715494369	367.86301330761694	3415.105008962703	603.7624271706179	413.09529463952873	3448.93112028097	504.38707379190055	426.7504163734349	3446.7158041241346	502.45571569748853	446.3739998592217	3392.1118623190077	532.1162724350341
371	6.183333333333334	462.10221165921644	3644.614062203748	540.1860166118506	855.0065404496066	3663.401584974079	541.4023916502763	1236.5677536999663	3726.4549731433262	612.1247344856322	1319.209341766653	3610.598383759997	561.4735274299289	1304.5376813597597	3671.813228752912	519.4541122660172	1269.8264853090814	3712.0260363674747	623.8688134898875	460.0768034230269	3492.172797484679	719.5986578550314	860.7725286178797	3547.6478773836375	737.2931918875539	1230.792016844548	3603.846941103499	723.4628035541042	1310.2124926977533	3497.018922993847	660.9321408788651	1270.4460655483294	3442.3366746967026	703.3271969153386	1259.0774578757018	3607.7186317474307	706.5990926137182	-115.83941912849944	3577.740464976713	689.8852053475822	-377.26644945389984	3499.5970115188547	680.837807969912	-223.7800913358556	3416.3638666399306	619.9710424574001	-49.85390557361889	3649.2689281582243	549.0358576834927	192.7449684483067	3701.622954949881	467.31467790942963	338.2819557815183	3458.0641351793915	484.1858634016957	426.3876404850942	3504.419404456134	577.5332076230831	435.41241709867796	3488.914902072668	601.3105120386447	459.4167378979822	3459.7240867524815	566.2346958257118	-9.043750667650338	3535.030495547785	846.219964543874	224.27909925781043	3391.3573366258265	774.1949042001913	367.6907728994036	3414.7391188044467	603.5577538361351	413.10607519382194	3451.593198839191	501.0567542844835	426.56905196935907	3448.23766471017	498.36043910063296	446.3488266545724	3392.177568873423	531.9863714793918
372	6.2	462.08339114207615	3644.745018632172	540.1401856422199	844.0485537665768	3656.9351260630838	538.724606368903	1230.8108442300306	3724.447541094515	610.3014171121768	1318.1354126046815	3610.513163840439	556.1279606965509	1304.8854794119538	3672.400785379966	519.7742118227882	1272.4159795245678	3706.260262335204	620.1748922623069	460.25679855808585	3492.571572840922	719.7342966603117	860.6939970612921	3547.929465467794	737.2140215915117	1228.2278217236098	3609.4752150937798	726.3636297882948	1307.9463033520904	3502.3823212708758	663.6707132274279	1270.5672628548448	3442.4224721287214	703.2423903103665	1262.0304797826632	3615.883663695647	706.3503814420341	-115.95546758337508	3577.63796638796	689.8690425298973	-377.3866907321688	3500.1958100838597	681.1932995588131	-223.8993571329199	3416.4465673814034	619.8713149739325	-49.94024008635897	3649.4397955339155	549.1106571417866	190.5975792780761	3684.3874303330767	454.2493394493563	338.2694693580615	3458.0273735300448	484.1188817220841	429.6537260921563	3521.5760396038036	591.9214826227842	435.5296197352983	3489.283812848234	601.5962667291649	464.2989685603985	3465.055620366111	562.7064891894518	-8.964959501132478	3534.9121194242107	846.2192025986977	226.03170398962345	3411.1130681274535	780.6129377706663	367.4631060216434	3414.443587262428	603.4361569704304	412.9822264005662	3451.281429549209	500.9630448435881	429.50710280492564	3444.320375893744	496.31653112102936	446.2480008975798	3392.567029295216	531.863333821813
373	6.216666666666667	461.86613589054224	3644.372257960795	539.8861062072324	855.7375547090788	3664.133663060629	541.7892208931842	1230.4394035750256	3722.7682923317157	611.1728628882211	1325.6756999830018	3631.362817915472	561.439811283921	1312.9235699278274	3694.4157895037274	525.1072937711616	1270.0235323830962	3712.4054645541105	623.5852358952517	459.8983558050399	3492.1266038143126	719.484170561764	866.9695160905268	3552.3179372087866	738.4425120514125	1228.1991338449182	3609.006363494414	726.2941669576526	1311.583628871958	3513.5269692473935	665.937172974822	1270.4931330948093	3442.1799798199518	703.0806124881569	1264.2833055592323	3608.9519223986954	708.0322614699526	-115.86775403654909	3578.03390868189	689.9776938112393	-377.46043271101826	3500.2705450765393	681.1243760738237	-228.27843618384756	3417.776266373529	615.4919528251902	-49.62999587357176	3671.0324652068543	554.4991988153782	190.68712629764326	3684.194270207671	454.23711058972077	338.2098234201249	3458.0642195980668	484.1395578691472	424.12374656281656	3519.983481659347	590.9520685062106	437.77566367181333	3508.541036486592	606.4767894668729	462.78040382172793	3475.8319517519153	579.0626100885053	-12.967428210941224	3541.788417278199	845.0116118185875	224.19611538248776	3392.9975183603306	769.2372087859297	367.4250620279726	3414.5952073325584	603.4167585353767	413.276506348346	3451.9157649494146	501.13008260576703	426.6201020722943	3448.666761314014	498.3841592036683	442.3548109252478	3391.1053762094584	530.8155181876265
374	6.233333333333333	462.0546001202953	3644.437721509303	539.9042957399706	855.8012442169618	3664.2466142921417	541.7913093392431	1236.6785538532731	3727.133088912213	612.1317329102545	1319.289085605811	3610.8097294831136	561.5830657683408	1304.778955199023	3672.461943276068	519.5599952322611	1270.1730074278269	3713.107110936046	623.9893303262207	460.1164172063731	3492.2117503348195	719.5351805109904	860.616019401971	3547.7284434566113	737.080957157095	1228.2445201935125	3608.8042288025335	726.1205272314621	1308.0457277518353	3502.3165297600217	663.808408088513	1270.4552866804017	3442.2669503849875	703.1690419088885	1264.3300957271476	3608.80213683577	707.8799392691864	-115.95991811182817	3599.4096627424824	696.4555947782522	-377.4437874140339	3502.321439030066	677.444337658645	-228.35009264404357	3418.1734603112145	615.6401670438122	-49.88846784739409	3649.8073514266957	549.2609180911725	190.63034314160817	3684.180840041919	454.10971123373264	338.16901857459976	3457.9255702922505	484.13118812221586	423.74767845935673	3520.5081566265844	591.4414679909986	437.5954975965558	3508.5467545686583	606.614534678828	462.76527974717766	3475.472736096906	579.0189536553067	-8.942072052435012	3535.109170173618	846.2316653118609	230.39084011124734	3413.835450762631	776.161556218198	367.4259091182984	3414.6324177186575	603.4363166014068	407.84213711521033	3450.7724115528417	500.3916642600168	426.47593880674935	3448.540726933923	498.22857579086514	442.39555043363885	3390.8710824134255	530.6802697971015
